<?xml version="1.0" encoding="UTF-8"?><svg id="uuid-17439d92-cf43-44bb-a80d-dc31d98a0e35" xmlns="http://www.w3.org/2000/svg" viewBox="0 0 80 80"><path d="m7.3662,46.6309c-.9321,0-1.8374-.0791-2.7153-.2368-.8784-.1577-1.6641-.3794-2.3574-.6641l.416-3.1201c.8472.3545,1.689.6279,2.5249.8208.8354.1924,1.6079.2886,2.3164.2886.8242,0,1.4561-.146,1.895-.439.439-.2925.6587-.7124.6587-1.2593,0-.7168-.4507-1.2866-1.3521-1.7104l-2.3569-1.1436c-1.1631-.5703-2.0645-1.2749-2.7036-2.1147-.6396-.8394-.959-1.7676-.959-2.7847,0-1.4326.4736-2.542,1.4209-3.3276.9478-.7856,2.2876-1.1782,4.021-1.1782,1.0088,0,1.9658.1772,2.8711.5312.9053.3545,1.708.8667,2.4092,1.5366l-2.103,2.415c-.5312-.5083-1.0669-.8994-1.606-1.1729s-1.0591-.4102-1.5596-.4102c-.6782,0-1.2056.1445-1.583.4336-.3774.2886-.5664.7065-.5664,1.2534,0,.3623.1328.7051.3989,1.0283.2656.3237.645.6162,1.1377.8784l2.2188,1.1436c1.1553.6011,2.0469,1.3018,2.6748,2.103s.9414,1.6602.9414,2.5767c0,1.4556-.5239,2.5786-1.5713,3.3682s-2.5381,1.1841-4.4712,1.1841Z" style="fill:#e5e5e5; stroke-width:0px;"/><path d="m15.4771,37.0293v-2.877h11.4854v2.877h-11.4854Zm2.9351,3.397v-9.9712h3.1196v9.9712h-3.1196Zm5.9849,6.2046c-2.1104,0-3.6357-.4233-4.5752-1.271-.9399-.8472-1.4097-2.2026-1.4097-4.0669v-1.5947h3.1196v1.2944c0,.9321.2407,1.6099.7222,2.0332.481.4238,1.2725.6357,2.3745.6357.354,0,.7334-.021,1.1377-.0635.4048-.0425.8647-.0986,1.3809-.1675l.2773,2.9229c-.5083.0928-1.0034.1621-1.4849.208-.4814.0464-.9956.0693-1.5425.0693Z" style="fill:#e5e5e5; stroke-width:0px;"/><path d="m29.458,46.3999v-2.6807h8.5732v2.6807h-8.5732Zm.4619-9.5669v-2.6807h4.6221l.231,2.6807h-4.853Zm2.126,9.5669v-12.2476h2.6577l.4624,3.5122v8.7354h-3.1201Zm3.1201-5.269l-.7168-4.2173h1.0518c.123-1.9946,1.167-2.9922,3.1313-2.9922,1.1626,0,2.0547.4272,2.6748,1.2822.6196.855.9302,2.0874.9302,3.6973h-3.1084c0-.7236-.1328-1.2437-.3984-1.5596-.2661-.3159-.6953-.4736-1.2886-.4736-.7627,0-1.3325.3696-1.71,1.1089-.3774.7397-.5659,1.791-.5659,3.1543Z" style="fill:#e5e5e5; stroke-width:0px;"/><path d="m52.5464,46.3999v-12.2476h2.7964l.335,2.5879v9.6597h-3.1313Zm7.2446,0v-7.1982c0-.7397-.1523-1.3096-.4565-1.71-.3042-.4009-.7373-.6011-1.2998-.6011-1.5713,0-2.3569,1.1323-2.3569,3.397l-.7163-3.917h1.0166c.1157-.8242.397-1.4385.8438-1.8428.4463-.4043,1.1245-.6064,2.0332-.6064,1.2944,0,2.2954.3926,3.0044,1.1782.7085.7856,1.063,1.895,1.063,3.3276v7.9727h-3.1313Z" style="fill:#e5e5e5; stroke-width:0px;"/><path d="m70.3867,46.6309c-1.5176,0-2.6978-.5469-3.541-1.6406-.8438-1.0938-1.2656-2.6611-1.2656-4.7026,0-2.0259.4219-3.5933,1.2656-4.7026.8433-1.1094,2.0312-1.6636,3.5645-1.6636.9316,0,1.6387.2021,2.1201.6064s.7954,1.0186.9419,1.8428h.9009l-.7163,3.917c0-1.186-.1982-2.0527-.5952-2.5996-.3965-.5469-.9956-.8203-1.7964-.8203-.7627,0-1.3521.2983-1.7681.8955-.416.5967-.624,1.4385-.624,2.5244,0,1.125.2026,1.9722.6069,2.542.4043.5703.9995.855,1.7852.855.8936,0,1.5151-.2695,1.8657-.8086s.5259-1.4019.5259-2.5884l.832,3.894h-1.0859c-.1235.8164-.4434,1.4287-.9595,1.8369s-1.2017.6123-2.0566.6123Zm-3.6162,5.292l-.1157-2.7266,3.9287-.1157c1.0781-.0308,1.8599-.3291,2.3452-.8955s.728-1.3999.728-2.5015v-8.9434l.231-2.5879h2.9004v11.1616c0,2.1797-.5122,3.7876-1.5366,4.8237-1.0249,1.0361-2.6577,1.5928-4.8994,1.6694l-3.5815.1157Z" style="fill:#e5e5e5; stroke-width:0px;"/><path d="m43.1163,27.7916v-1.7916h7.2648v1.7916h-7.2648Zm0,23.2084v-1.7998h7.2648v1.7998h-7.2648Zm2.6462,0v-25h1.9559v25h-1.9559Z" style="fill:#ff1d25; stroke-width:0px;"/></svg>